<svg height="457pt" viewBox="0 -29 457.14286 457" width="457pt" xmlns="http://www.w3.org/2000/svg"><path d="m448 324.289062h-17.242188v-300.574218c0-13.035156-10.605468-23.6445315-23.640624-23.6445315h-357.214844c-13.035156 0-23.644532 10.6093755-23.644532 23.6445315v300.574218h-17.113281c-5.054687 0-9.144531 4.09375-9.144531 9.144532v16.453125c0 26.769531 20.464844 48.550781 45.625 48.550781h365.894531c25.160157 0 45.625-21.78125 45.625-48.550781v-16.453125c0-5.050782-4.089843-9.144532-9.144531-9.144532zm-403.457031-300.574218c0-2.957032 2.402343-5.359375 5.359375-5.359375h357.214844c2.953124 0 5.355468 2.402343 5.355468 5.359375v300.574218h-367.929687zm394.3125 326.171875c0 16.6875-12.265625 30.265625-27.335938 30.265625h-365.894531c-15.070312 0-27.339844-13.578125-27.339844-30.265625v-7.3125h420.570313zm0 0"/><path d="m103.273438 186.199219 82.800781 42.652343v-12.316406l-69.78125-34.976562v-.355469l69.78125-34.980469v-12.316406l-82.800781 42.652344zm0 0"/><path d="m197.746094 235.988281h11.960937l49.960938-129.386719h-12.136719zm0 0"/><path d="m270.941406 146.222656 70.308594 34.980469v.355469l-70.308594 34.976562v12.316406l82.804688-42.476562v-9.992188l-82.804688-42.476562zm0 0"/><path d="m203.269531 370.472656h50.542969c5.054688 0 9.144531-4.09375 9.144531-9.140625 0-5.050781-4.089843-9.144531-9.144531-9.144531h-50.542969c-5.054687 0-9.144531 4.09375-9.144531 9.144531 0 5.046875 4.089844 9.140625 9.144531 9.140625zm0 0"/></svg>