<svg id="_x33_0" enable-background="new 0 0 64 64" height="512" viewBox="0 0 64 64" width="512" xmlns="http://www.w3.org/2000/svg"><g><path d="m38.316 18.948-.633-1.896c-2.175.725-3.907 2.457-4.632 4.632l1.896.633c.529-1.582 1.788-2.841 3.369-3.369z"/><path d="m61 15c1.103 0 2-.897 2-2v-2c0-1.103-.897-2-2-2h-5.382c-.703-.615-1.612-1-2.618-1s-1.915.385-2.618 1h-7.566c.112-.314.184-.648.184-1v-2c0-1.654-1.346-3-3-3-.395 0-.77.081-1.116.22-.345-1.275-1.501-2.22-2.884-2.22-.771 0-1.468.301-2 .78-.532-.479-1.229-.78-2-.78s-1.468.301-2 .78c-.532-.479-1.229-.78-2-.78-1.654 0-3 1.346-3 3v3c-1.474 0-2.75.81-3.444 2h-7.938c-.703-.615-1.612-1-2.618-1s-1.915.385-2.618 1h-5.382c-1.103 0-2 .897-2 2v2c0 1.103.897 2 2 2h5.382c.12.105.237.214.369.305l-7.751 16.471v1.224c0 5.514 4.486 10 10 10s10-4.486 10-10v-1.224l-7.751-16.472c.132-.09.249-.2.369-.305h7.382v2c0 3.05.898 6.076 2.541 8.641-.333.359-.541.834-.541 1.36v11.195l-3.024 3.024 1.456 1.456c.551.552.712 1.377.394 2.141-.299.719-.993 1.184-1.771 1.184h-2.055v6h2.055c.778 0 1.473.465 1.786 1.222.303.726.142 1.551-.409 2.103l-1.456 1.456 4.244 4.244 1.456-1.456c.551-.552 1.374-.714 2.141-.394.718.298 1.183.992 1.183 1.77v2.055h6v-2.055c0-.778.465-1.473 1.222-1.786.728-.303 1.552-.142 2.103.409l1.456 1.456 4.244-4.244-1.456-1.456c-.551-.552-.712-1.377-.394-2.141.298-.718.992-1.183 1.77-1.183h2.055v-6h-2.055c-.778 0-1.473-.465-1.786-1.222-.303-.726-.142-1.551.409-2.103l1.456-1.456-3.024-3.024v-11.195c0-.526-.208-1.001-.541-1.359 1.643-2.565 2.541-5.591 2.541-8.641v-2h7.382c.12.105.237.214.369.305l-7.751 16.471v1.224c0 5.514 4.486 10 10 10s10-4.486 10-10v-1.224l-7.751-16.472c.132-.09.249-.2.369-.305h5.382zm-50-5c1.103 0 2 .897 2 2s-.897 2-2 2-2-.897-2-2 .897-2 2-2zm-8 1h4.142c-.084.322-.142.653-.142 1s.058.678.142 1h-4.142zm8 30c-4.411 0-8-3.589-8-8h16c0 4.411-3.589 8-8 8zm7.424-10h-14.848l7.076-15.035c.116.01.229.035.348.035s.232-.025.348-.035zm-3.566-18c.084-.322.142-.653.142-1s-.058-.678-.142-1h6.142v2zm46.142 0h-4.142c.084-.322.142-.653.142-1s-.058-.678-.142-1h4.142zm-8-3c1.103 0 2 .897 2 2s-.897 2-2 2-2-.897-2-2 .897-2 2-2zm-3.858 3h-14.263c.735-.5 1.307-1.195 1.673-2h12.59c-.084.322-.142.653-.142 1s.058.678.142 1zm-9.142-8c.552 0 1 .448 1 1v2c0 .552-.448 1-1 1s-1-.448-1-1v-2c0-.552.448-1 1-1zm-4-2c.552 0 1 .448 1 1v4c0 .15-.038.289-.097.416-.252-.817-1.005-1.416-1.903-1.416v-3c0-.552.448-1 1-1zm-4 0c.552 0 1 .448 1 1v3h-2v-3c0-.552.448-1 1-1zm-5 1c0-.552.448-1 1-1s1 .448 1 1v3h-2zm12 23v10.756l-.676.676c-.551.55-1.374.713-2.141.392-.718-.297-1.183-.991-1.183-1.769v-2.055h-6v2.055c0 .778-.465 1.473-1.223 1.785-.724.303-1.55.144-2.102-.408l-.675-.676v-10.756zm1.327 18.58c.607 1.47 2.028 2.42 3.618 2.42h.055v2h-.055c-1.59 0-3.011.95-3.632 2.452-.616 1.477-.286 3.159.841 4.286l.042.042-1.416 1.416-.042-.042c-1.126-1.125-2.807-1.458-4.318-.827-1.47.608-2.42 2.028-2.42 3.618v.055h-2v-.055c0-1.59-.95-3.011-2.452-3.632-1.477-.616-3.159-.287-4.286.841l-.042.042-1.416-1.416.042-.042c1.127-1.127 1.457-2.81.827-4.318-.608-1.47-2.028-2.42-3.618-2.42h-.055v-2h.055c1.59 0 3.011-.95 3.632-2.452.616-1.477.286-3.159-.841-4.286l-.042-.042 1.416-1.416.042.042c1.126 1.127 2.809 1.457 4.318.827 1.47-.607 2.42-2.027 2.42-3.618v-.055h2v.055c0 1.591.95 3.011 2.451 3.631 1.475.614 3.159.288 4.287-.84l.042-.042 1.416 1.416-.042.042c-1.127 1.127-1.457 2.809-.827 4.318zm.673-28.58c0 2.847-.899 5.664-2.524 8h-12.952c-1.625-2.336-2.524-5.153-2.524-8v-6c0-1.103.897-2 2-2h10c0 1.307-.886 2.44-2.152 2.758l-6.467 1.616.787 1.181c1.198 1.798 1.832 3.89 1.832 6.05v.395h2v-.395c0-1.958-.456-3.863-1.299-5.605h11.299zm12 24c-4.411 0-8-3.589-8-8h16c0 4.411-3.589 8-8 8zm7.424-10h-14.848l7.076-15.035c.116.01.229.035.348.035s.232-.025.348-.035z"/><path d="m32 42c-3.859 0-7 3.141-7 7s3.141 7 7 7 7-3.141 7-7-3.141-7-7-7zm0 12c-2.757 0-5-2.243-5-5s2.243-5 5-5 5 2.243 5 5-2.243 5-5 5z"/></g></svg>